inDegrees=yes
name=ik_MT_012005D6_009-001_orientations
DataType=double
version=3
OpenSimVersion=4.5-2024-01-10-34fd6af
endheader
time	pelvis_tilt	pelvis_list	pelvis_rotation	pelvis_tx	pelvis_ty	pelvis_tz	hip_flexion_r	hip_adduction_r	hip_rotation_r	knee_angle_r	knee_angle_r_beta	ankle_angle_r	subtalar_angle_r	mtp_angle_r	hip_flexion_l	hip_adduction_l	hip_rotation_l	knee_angle_l	knee_angle_l_beta	ankle_angle_l	subtalar_angle_l	mtp_angle_l	lumbar_extension	lumbar_bending	lumbar_rotation	arm_flex_r	arm_add_r	arm_rot_r	elbow_flex_r	pro_sup_r	wrist_flex_r	wrist_dev_r	arm_flex_l	arm_add_l	arm_rot_l	elbow_flex_l	pro_sup_l	wrist_flex_l	wrist_dev_l
11.12999999999981	46.18325683559509	-212.3517587911333	-240.4445111716452	0	0.9399999999999999	0	-29.99848644392044	-49.91641940357385	39.99879590362399	35.98345736555211	0.628029807279889	-4.892397423346472	0	0	-19.89718402608475	29.99661053478649	39.99849850830356	119.9924624834305	2.094263547911634	-4.892397423346472	0	0	0	0	0	0	-6.596845751476222	0	55.0300252079357	42.27817606458503	0	0	0	-6.596845751476222	0	55.0300252079357	42.27817606458503	0	0
11.13999999999981	46.16574379402444	-212.0791091050883	-240.3779047491062	0	0.9399999999999999	0	-29.99848707288202	-49.89166246216926	39.99880619230874	35.2684065429947	0.6155498161071685	-4.892968603236433	0	0	-20.2871372882886	29.99660492265341	39.99851627440506	119.9925965974237	2.094265888642388	-4.892968603236433	0	0	0	0	0	0	-6.602688232715522	0	55.05789405124254	42.28738128214215	0	0	0	-6.602688232715522	0	55.05789405124254	42.28738128214215	0	0
11.14999999999981	46.12475220821818	-211.7093068063707	-240.2760480439567	0	0.9399999999999999	0	-29.9984862936141	-49.85929395170064	39.99881702375144	34.45223204144665	0.6013048837843316	-4.893572845473185	0	0	-20.74617698928994	29.99658495255659	39.99853498899441	119.9927556746281	2.094268665063369	-4.893572845473185	0	0	0	0	0	0	-6.608921184322488	0	55.08756059587443	42.29714662383692	0	0	0	-6.608921184322488	0	55.08756059587443	42.29714662383692	0	0
11.15999999999981	46.07767869989489	-211.2668503191293	-240.1535494711293	0	0.9399999999999999	0	-29.9984854370558	-49.82662017059149	39.99882827790183	33.62847420884955	0.5869275973664199	-4.894230441994141	0	0	-21.21280853309564	29.99655818159226	39.99855374999451	119.9929093765334	2.094271347667685	-4.894230441994141	0	0	0	0	0	0	-6.615627092595941	0	55.11958241536949	42.30773968320496	0	0	0	-6.615627092595941	0	55.11958241536949	42.30773968320496	0	0
11.16999999999981	46.01420918688852	-210.6915565202959	-239.9487181665973	0	0.9399999999999999	0	-29.99848435377181	-49.75354696804424	39.99884024858453	32.7811234744222	0.5721385371314706	-4.894813390901237	0	0	-21.8447013675091	29.99651166726037	39.99857354398271	119.9930888754712	2.094274480515153	-4.894813390901237	0	0	0	0	0	0	-6.621746671998723	0	55.1485888336847	42.31721991978488	0	0	0	-6.621746671998723	0	55.1485888336847	42.31721991978488	0	0
11.17999999999981	45.94649086017598	-210.0015091219477	-239.669057947054	0	0.9399999999999999	0	-29.99848181755235	-49.59911137557426	39.99885204161476	31.89153398212087	0.5566122714996675	-4.895401143277498	0	0	-22.59267915593804	29.99644751208333	39.99859334588131	119.9932964211942	2.094278102871368	-4.895401143277498	0	0	0	0	0	0	-6.627974676690383	0	55.17804613122212	42.32681077436314	0	0	0	-6.627974676690383	0	55.17804613122212	42.32681077436314	0	0
11.18999999999981	46.62677800835108	-200.365442640718	-232.4155641704682	0	0.9399999999999999	0	-29.99819479830842	-29.57127243369457	39.99885341596347	43.93789407389691	0.7668609179820057	-4.899701759713747	0	0	-29.98713023542023	29.99507712692621	39.99862332361301	119.9955506972566	2.094317447410906	-4.899701759713747	0	0	0	0	0	0	-6.668834636137992	0	55.37757980947224	42.39489093422529	0	0	0	-6.668834636137992	0	55.37757980947224	42.39489093422529	0	0
11.19999999999981	46.55623682659075	-200.1455177561436	-232.5087731465118	0	0.9399999999999999	0	-29.99819010352456	-30.3227765357379	39.99886593874935	42.23245129304903	0.7370953262518423	-4.900727083940163	0	0	-29.98736054119639	29.99509850321888	39.99863440856328	119.9955803081	2.094317964217618	-4.900727083940163	0	0	0	0	0	0	-6.679318230972186	0	55.42788948195785	42.41154337664059	0	0	0	-6.679318230972186	0	55.42788948195785	42.41154337664059	0	0
11.20999999999981	46.46822111140573	-200.0112302356719	-232.6678530936292	0	0.9399999999999999	0	-29.99819106971618	-31.40975894068368	39.99887810881957	40.18578182006834	0.701374205248272	-4.901794353712243	0	0	-29.98736349708999	29.99511837006436	39.99864600287037	119.995608434204	2.094318455110737	-4.901794353712243	0	0	0	0	0	0	-6.690437277915609	0	55.48101360400315	42.42899295372344	0	0	0	-6.690437277915609	0	55.48101360400315	42.42899295372344	0	0
11.21999999999981	46.37428182657361	-199.9092031198385	-232.8647149375962	0	0.9399999999999999	0	-29.99819383616054	-32.7093379303781	39.99888911733035	37.94852044695629	0.6623266280597775	-4.903205614002077	0	0	-29.98728115867122	29.99513326064969	39.99865733591998	119.995637202922	2.094318957219587	-4.903205614002077	0	0	0	0	0	0	-6.705742346647066	0	55.55341412360002	42.45237999690972	0	0	0	-6.705742346647066	0	55.55341412360002	42.45237999690972	0	0
11.22999999999981	46.23942318892099	-199.8579678205721	-233.081513301664	0	0.9399999999999999	0	-29.99819934458757	-34.31020643357873	39.998898472539	35.43235653402716	0.6184112832593002	-4.904710554621112	0	0	-29.98712177483512	29.99515724095519	39.99866749490375	119.995657193252	2.094319306116666	-4.904710554621112	0	0	0	0	0	0	-6.722428991204982	0	55.6319471555918	42.4775195547824	0	0	0	-6.722428991204982	0	55.6319471555918	42.4775195547824	0	0
11.2399999999998	46.0462845081574	-199.8023122007001	-233.2478185471749	0	0.9399999999999999	0	-29.99820459511674	-36.06902348263389	39.99890555858456	32.68079389475767	0.5703874556291826	-4.906214855533155	0	0	-29.98702040751567	29.99518351332906	39.99867547747417	119.9956714565502	2.094319555058181	-4.906214855533155	0	0	0	0	0	0	-6.73958658261329	0	55.71215333342933	42.50289768746111	0	0	0	-6.73958658261329	0	55.71215333342933	42.50289768746111	0	0
11.2499999999998	45.81975459821554	-199.7555702238317	-233.351339050977	0	0.9399999999999999	0	-29.99820820162511	-37.93609892150875	39.99891055487507	29.73674217228416	0.5190040597230094	-4.908319234227939	0	0	-29.98705061784992	29.99521082397273	39.99868156962972	119.9956847360514	2.0943197868292	-4.908319234227939	0	0	0	0	0	0	-6.764633411882632	0	55.82799601316813	42.53890743249092	0	0	0	-6.764633411882632	0	55.82799601316813	42.53890743249092	0	0
11.2599999999998	45.56482316759543	-199.691041737756	-233.3485467784644	0	0.9399999999999999	0	-29.99820864862344	-39.74773264204992	39.99891368537133	26.72218496617001	0.4663901109865962	-4.910283938665322	0	0	-29.98727568477219	29.99523652967746	39.99868587554183	119.9957026507646	2.094320099499929	-4.910283938665322	0	0	0	0	0	0	-6.788777587538092	0	55.93884372737876	42.5729147969404	0	0	0	-6.788777587538092	0	55.93884372737876	42.5729147969404	0	0
11.2699999999998	45.26247722822625	-199.6489042309585	-233.2350627571993	0	0.9399999999999999	0	-29.99820890993614	-41.55022805655738	39.99891554371285	23.59132379570817	0.4117462751391936	-4.912187023814067	0	0	-29.98758596747309	29.99526257311354	39.9986891403719	119.9957226418594	2.094320448410354	-4.912187023814067	0	0	0	0	0	0	-6.812487165745154	0	56.04748779165151	42.60606774380005	0	0	0	-6.812487165745154	0	56.04748779165151	42.60606774380005	0	0
11.2799999999998	44.91790633110397	-199.712988546134	-233.1228039431611	0	0.9399999999999999	0	-29.9982143422078	-43.60963640878003	39.99891670047447	20.2551546026664	0.3535191383170125	-4.913642218391136	0	0	-29.98772023146202	29.99527527058637	39.9986933188576	119.9957420032283	2.09432078632999	-4.913642218391136	0	0	0	0	0	0	-6.830388870885631	0	56.12995325857801	42.63138064862295	0	0	0	-6.830388870885631	0	56.12995325857801	42.63138064862295	0	0
11.2899999999998	44.5144015554974	-199.9302391139807	-233.0871053030581	0	0.9399999999999999	0	-29.9982299347711	-46.13417425278895	39.99891624173118	16.58682104748805	0.2894946397177613	-4.915065750074977	0	0	-29.98746647708506	29.9952828449257	39.99869867552324	119.9957477246933	2.094320886188393	-4.915065750074977	0	0	0	0	0	0	-6.848028987044544	0	56.21119886967175	42.65625241605517	0	0	0	-6.848028987044544	0	56.21119886967175	42.65625241605517	0	0
11.2999999999998	44.06052132804643	-200.2113984694843	-233.0715160307178	0	0.9399999999999999	0	-29.99824975720342	-48.86479906751666	39.99891368480377	12.8220486334082	0.2237869655038126	-4.916406730986012	0	0	-29.98703164410161	29.99527781052274	39.99870425292782	119.9957496842147	2.094320920388493	-4.916406730986012	0	0	0	0	0	0	-6.864687062532087	0	56.28799758193678	42.6797482718302	0	0	0	-6.864687062532087	0	56.28799758193678	42.6797482718302	0	0
11.3099999999998	43.66068797186514	-199.9499016667642	-232.5151747242677	0	0.9399999999999999	0	-29.99823418409215	-49.78824939104226	39.99891318779749	10.21588654582619	0.1783008562348577	-4.917129557289486	0	0	-29.98816622932337	29.99522381403809	39.99870592980342	119.995832607947	2.094322367680649	-4.917129557289486	0	0	0	0	0	0	-6.873651455456	0	56.32939438787258	42.69242645142486	0	0	0	-6.873651455456	0	56.32939438787258	42.69242645142486	0	0
11.3199999999998	43.28127000027157	-199.4419276780831	-231.7013228805894	0	0.9399999999999999	0	-29.99820226997882	-49.90101608541078	39.99891435884904	8.127285874764315	0.1418478977654648	-4.917734412062386	0	0	-29.98962452025322	29.99514444736481	39.99870598474714	119.9959471526884	2.094324366863527	-4.917734412062386	0	0	0	0	0	0	-6.881107522977076	0	56.36391092861839	42.70302722837828	0	0	0	-6.881107522977076	0	56.36391092861839	42.70302722837828	0	0
11.3299999999998	42.8992700620361	-198.8913894491505	-230.8471245159919	0	0.9399999999999999	0	-29.99816582437567	-49.93750872902183	39.99891530876603	6.03390646921175	0.1053115346451309	-4.917862359571952	0	0	-29.9908425275123	29.99505419655444	39.99870536420585	119.9960607916394	2.09432635023738	-4.917862359571952	0	0	0	0	0	0	-6.882573495622036	0	56.37082402766516	42.70521822471777	0	0	0	-6.882573495622036	0	56.37082402766516	42.70521822471777	0	0
